# xmcd
#
# Track frame offsets: 
#        150
#        33683
#        52594
#        79237
#        91968
#        135494
#        164273
#        182169
#        199061
#        228240
#        252610
#        265052
#        287468
#        308530
#        312657
#        318012
#
# Disc length: 4346 seconds
#
# Revision: 2
# Processed by: cddbd v1.5PL3 Copyright (c) Steve Scherf et al.
# Submitted via: ExactAudioCopy v0.95a4
#
DISCID=d110f810
DTITLE=Astor Piazzolla - Itinerary of a Genius
DYEAR=2002
DGENRE=Jazz
TTITLE0=Adios Nonino
TTITLE1=Libertango
TTITLE2=Buenos Aires hora cero
TTITLE3=Tres minutos con la realidad
TTITLE4=Verano Porteño
TTITLE5=Doble concierto para Bandoneón, Guitarra y Orquestra de Cuerdo
TTITLE5=s
TTITLE6=Vuelvo al Sur (Voice Roberto Goyeneche)
TTITLE7=Tanguedia III
TTITLE8=Milonga del Angel
TTITLE9=Concierto de Nacar 3rd Movement Allegro Marcato
TTITLE10=Decarissimo
TTITLE11=Duo de Amor
TTITLE12=Ballada para un loco (Voice Amelita Baltar)
TTITLE13=Novembre 1987 - Opus (France Culuture)
TTITLE14=July 1987 - Les troittoirs de Buenos Aires - Euphonia Argenti
TTITLE14=na
TTITLE15=March 21, 1981 - Interactualités
EXTD=YEAR: 2002
EXTT0=
EXTT1=
EXTT2=
EXTT3=
EXTT4=
EXTT5=
EXTT6=
EXTT7=
EXTT8=
EXTT9=
EXTT10=
EXTT11=
EXTT12=
EXTT13=
EXTT14=
EXTT15=
PLAYORDER=
